<?xml version="1.0" encoding="UTF-8"?>
<svg width="110.65" height="59.5" version="1.0" viewBox="0 0 1007.6 529.44" xmlns="http://www.w3.org/2000/svg" xmlns:cc="http://creativecommons.org/ns#" xmlns:dc="http://purl.org/dc/elements/1.1/" xmlns:rdf="http://www.w3.org/1999/02/22-rdf-syntax-ns#">
<metadata>
<rdf:RDF>
<cc:Work rdf:about="">
<dc:format>image/svg+xml</dc:format>
<dc:type rdf:resource="http://purl.org/dc/dcmitype/StillImage"/>
<dc:title/>
</cc:Work>
</rdf:RDF>
</metadata>
<g transform="matrix(.37276 0 0 .37276 -1.8675 -4.48)" fill="#b02925">
<path d="m825.05 0h17.95c4.35 1.63 8.95 2.65 13.04 4.92 8.86 4.74 16.45 12.07 20.98 21.08 6.41 13.07 7.2 28.21 5.39 42.44 60.78 0.05 121.57 0 182.35 0.02 0.01 3.08 0.02 6.15 0.02 9.23-11.79 0.01-23.58 0.08-35.37-0.02-0.16 46.78-0.04 93.55-0.05 140.32-0.33 4.56 1.39 10.16 6.38 11.34 4.69 0.68 9.47 0.2 14.21 0.3 0.13 3.02 0.16 6.05 0.11 9.08-20.39 0-40.78-0.06-61.16 0.04-0.14-3.07-0.06-6.15 0.27-9.2 4.57-0.01 9.19 0.46 13.74-0.25 4.07-0.73 6.02-4.99 6.63-8.67 0.98-6.7 0.45-13.48 0.34-20.21-11.33 9.74-25.13 16.75-39.81 19.7-10.67 2.27-22.19 0.13-31.27-5.92-11.59-7.19-19.17-18.91-25.33-30.76-4.68-9.19-10.85-18.1-20-23.31 1.14-3.43 2.53-6.79 4.21-10 14.03 12.57 36.17 12.86 52.02 3.58 7.59-4.48 10.66-13.51 11.74-21.8 1.1-10.74 1.6-21.91-1.9-32.29-2.71-7.5-7.45-14.71-14.62-18.57-4.86-2.68-10.49-3.42-15.96-3.35-15.9 0.04-31.8-0.03-47.69 0.06-0.08 47.11-0.04 94.22-0.01 141.33-0.26 4.41 2.02 9.47 6.77 10.32 4.56 0.55 9.17 0.16 13.75 0.23 0.02 3.03 0.02 6.05 0.02 9.08-20.37-0.11-40.74 0.11-61.11-0.09 0.01-3 0.03-5.99 0.06-8.98 5.02-0.23 10.22 0.7 15.12-0.69 4.97-2.15 5.88-8.25 5.95-13.07 0.03-46.05 0.11-92.11 0.01-138.17-17.22-0.02-34.44 0.04-51.66-0.04-0.58 16.09-0.11 32.2-0.26 48.3 0.04 30.67-0.08 61.34 0.05 92.01-0.15 4.4 1.15 9.84 5.94 11.26 4.8 1.01 9.77 0.24 14.65 0.47 0.05 3.02 0.08 6.03 0.08 9.05-20.38 0.01-40.76 0.07-61.15-0.03 0.02-3.01 0.06-6.01 0.12-9.01 4.58-0.15 9.2 0.37 13.74-0.32 4.69-0.83 6.59-5.94 7.04-10.11 0.53-6.74 0.14-13.51 0.27-20.27-0.19-12.9 0.84-26.02-2.24-38.69-1.31-6.24-4.71-11.98-9.37-16.29-10.11-9.17-27.44-11.6-38.19-2.21-9.51 8.17-12.59 21.19-13.41 33.19-0.58 12.29-0.67 24.87 2.71 36.81 2.02 8.02 6.92 15.17 13.65 19.97-2.93 2.37-5.92 4.66-8.91 6.94-6.02-3.21-11.56-7.4-15.9-12.69-9.28-10.72-13.36-25.1-13.43-39.1-0.35-14.4 3.3-29.37 12.64-40.64 9.14-11.75 23.77-19.03 38.73-18.69 12.33-0.36 24.34 4.44 33.7 12.33 0.01-14.3 0.03-28.6 0.01-42.9-0.06-5.96-1.05-12.71-5.9-16.77-2.63-2.38-6.39-2.61-9.76-2.6-34.09 0.08-68.18-0.06-102.28 0.09 11.42 8.21 17.87 21.63 20.08 35.24 2.79 17.81 0.9 37.57-10.62 52.14-9.41 12.61-24.85 19.73-40.41 20.33 2.09 6.88 6.26 12.82 9.71 19.06 5.59 8.84 13.16 17.46 23.44 20.68 9.34 2.82 19.02-1.54 26.02-7.65 1.42 1.98 2.82 3.99 4.16 6.05-2.96 2.9-5.96 5.8-9.47 8.03-9.31 6.24-21.47 8.09-32.19 4.81-8.93-2.57-16.26-8.74-22.5-15.4-7.62-8.6-11.75-19.5-18.04-28.98-4.55-6.22-9.8-12-16.01-16.6 0.64-3.96 2.12-7.69 3.93-11.24 9.71 9.83 24.93 13.24 38.17 9.93 7.86-1.81 16.41-5.23 20.19-12.92 6.05-12.09 5.82-26.07 5.47-39.25-0.77-12.27-2.9-25.62-11.68-34.9-5.53-6.17-13.8-9.4-22.01-9.37-15.8-0.06-31.6 0-47.4 0-0.02 46.75-0.02 93.5-0.01 140.25-0.21 4.28 1.12 9.5 5.6 11.11 4.88 1.14 9.97 0.4 14.94 0.48 0.11 3 0.18 6.01 0.26 9.01-20.39 0.27-40.79 0.02-61.18 0.15-0.02-3.04-0.01-6.08 0.05-9.12 4.86-0.13 9.83 0.55 14.62-0.52 5.59-2.08 6.25-9.01 6.4-14.13 0.03-39.01-0.01-78.02 0.02-117.02-0.1-4.88-0.54-9.98-3.04-14.29-1.96-3.63-6.01-6.01-10.14-5.93-11.88-0.09-23.76 0.14-35.64-0.1-0.28 46.78-0.05 93.57-0.11 140.36-0.27 4.36 1.19 9.62 5.79 11.14 4.82 1.04 9.83 0.33 14.73 0.46 0.2 3.03 0.27 6.07 0.12 9.1-20.42-0.06-40.84 0.17-61.25-0.12 0.02-3.02 0.13-6.04 0.45-9.03 4.58 0.02 9.21 0.47 13.76-0.24 3.62-0.75 5.72-4.35 6.41-7.73 0.85-4.48 0.56-9.07 0.61-13.6-0.09-14.6 0.07-29.2 0-43.8-11.07 0.16-22.14-0.04-33.21 0.1 0 7.91 0.01 15.81 0.02 23.72-0.02 7.36-0.35 14.88-2.83 21.89-2.65 7.49-9.74 12.76-17.34 14.44-8.92 2.01-18.54 2.45-27.22-0.81-10.73-3.97-19.87-13.09-22.34-24.45-1.32-6.47-1.26-13.28 0.37-19.69 3.22-12.32 14.32-21.78 26.72-24.01 8.7-1.43 17.56-0.25 26.33-0.75-0.7-6.19-0.84-12.42-1.2-18.63-7.68 2.19-15.75 3.36-23.71 2.36-10.52-1.49-20.32-8-25.41-17.37-6.29-12.32-5.65-28.72 3.26-39.65 7.35-9.01 19.05-14.19 30.67-13.74 8.85 0.23 18.58 1.75 25.02 8.41 6.12 5.92 7.35 14.9 7.48 23.01 0.21 18.54 0.12 37.09 0.15 55.64 11.06 0.25 22.13 0.04 33.19 0.18 0.08-18.6 0.01-37.21 0.04-55.81 0.09-6.44-0.41-13.77-5.45-18.44-4.9-4.36-11.94-2.89-17.93-3.13 0.03-2.97 0.06-5.95 0.08-8.92 100.66-0.24 201.33 0.01 301.99-0.07-1.47-13.06-1.07-26.72 3.77-39.1 6.08-15.24 20.49-26.69 36.67-29.35m-8.06 13.76c-7.53 6.63-10.96 16.59-12.26 26.28-1.17 9.43-1.55 19.03-0.34 28.47 19.37-0.11 38.73-0.03 58.1-0.04 1.23-13.1 1.16-26.62-2.54-39.33-2.56-8.66-8.66-16.78-17.36-19.89-8.53-3.07-18.84-1.79-25.6 4.51m-384.42 60.04c-4.22 1.14-7.82 4.21-9.7 8.15-2.25 4.69-2.97 9.94-3.27 15.09-0.33 8.53-0.16 17.29 2.7 25.44 1.84 4.67 5.69 8.86 10.69 10.09 4.31 0.79 9.19 0.2 12.58-2.8 7.54-5.74 9.67-15.79 9.96-24.76 0.32-9.56-1.21-20.23-8.32-27.25-3.7-3.89-9.5-5.23-14.64-3.96m538.13 12.62c7.71 10.8 10.62 24.52 9.76 37.63-0.93 12.06-7 23.43-16 31.42-9.68 9.19-23.09 13.1-36.13 13.97 4.14 9.92 8.1 20.62 16.53 27.78 6.83 5.43 15.2 9.82 24.15 9.52 14.62 0.08 28.44-6.79 39.5-15.94 2.04-1.21 1.25-3.85 1.57-5.81 0.03-28.33 0-56.66 0.01-84.99-0.12-5.26-0.09-10.81-2.63-15.58-1.85-3.99-6.09-6.84-10.53-6.7-11.66-0.01-23.31-0.09-34.96 0.11 2.82 2.96 6.4 5.15 8.73 8.59m-539.32 74.98c-6.66 2.58-9.87 9.83-10.89 16.46-1.31 9.85-1.68 20.09 0.93 29.77 1.17 4.72 4.35 8.99 8.74 11.16 5.94 2.9 13.54 1.12 17.84-3.81 6.35-6.94 7.84-16.86 7.58-25.93-0.2-8.78-2.05-18.47-8.98-24.53-3.94-3.83-10.1-5.16-15.22-3.12z"/>
<path d="m1110.3 68.48c118.15-0.05 236.31 0 354.47-0.02 0.02 3.07 0.02 6.15 0.01 9.23-25.15 0.03-50.29 0.05-75.44-0.01-0.2 12.57-0.1 25.15-0.04 37.72 16.72-12.67 42.43-12.09 58 2.25 12.66 10.84 18.22 28.04 17.44 44.37 0.05 15.28-5.85 30.91-17.71 40.89-12.18 11.21-30.71 13.66-45.98 7.99 1.51-2.51 3.05-5.01 4.6-7.5 6.26 3.2 13.83 3.7 20.39 1.1 7.06-3 12.23-9.45 14.8-16.57 3.89-10.5 4.19-21.87 3.94-32.94-0.23-8.75-1.5-17.64-5.14-25.67-3.82-7.95-11.45-14.76-20.6-15.14-7.21-0.64-14.74 1.89-19.69 7.25-7.3 7.54-9.45 18.48-10.06 28.59-0.09 22.99-0.06 45.97-0.02 68.95-0.31 4.44 2.1 9.46 6.81 10.37 4.54 0.43 9.13 0.07 13.7 0.13 0.03 3.04 0.01 6.08-0.04 9.12-20.34-0.07-40.67 0.03-61.01-0.06-0.02-2.99-0.03-5.99-0.01-8.98 4.75-0.23 9.6 0.43 14.31-0.5 3.65-0.91 5.63-4.65 6.26-8.1 1.04-5.62 0.28-11.37 0.61-17.04-9.56 6.69-21.18 10.73-32.94 9.69-16.17-0.69-30.55-11.7-37.65-25.88-5.84-11.62-6.85-25.06-5.3-37.8 1.85-14.38 9.61-28.12 21.82-36.17 16.09-10.8 38.89-9.57 54.07 2.35-0.29-8.32 0.33-16.67-0.44-24.96-0.71-6.1-4.6-13.21-11.47-13.41-27.49-0.02-54.98-0.05-82.46 0.02 0.03 47.07-0.04 94.13 0.03 141.2-0.17 4.28 1.79 9.46 6.44 10.44 4.7 0.6 9.46 0.11 14.19 0.28 0.02 3.02 0.02 6.05-0.07 9.08-20.34-0.11-40.68-0.06-61.02-0.02-0.05-3.03-0.04-6.05 0.11-9.07 5.69-0.65 12.39 1.66 17.28-2.19 4.55-4.94 3.65-12.27 3.79-18.47 0-43.75 0.05-87.5 0.04-131.26-12.25-0.08-24.49-0.03-36.74 0-0.06 20.91 0.01 41.82-0.04 62.74-6.4 0.05-12.79 0.04-19.17 0.03-0.52-7.04 1.33-14.8-2.76-21.09-4.36-8.09-13.75-11.97-22.59-12.1-7.3-0.49-15.05 1.08-20.66 6.02-7.72 6.71-9.27 18.94-4.4 27.75 2.7 5.35 8.12 9.08 14.02 9.99 15.8 2.17 31.97 0.43 47.69 3.38 8.34 1.95 15.58 7.56 20.21 14.69 6.89 10.98 7.17 25.27 2.37 37.11-8.02 18.84-27.82 31.66-48.14 32.43-17.11 1.82-34.61-3.92-47.72-14.96-20.68-16.28-31.92-41.72-35.98-67.22 2.71-0.13 5.41-0.25 8.13-0.36 2.02 14.55 7.1 28.77 15.7 40.75 8.53 12.02 20.31 22.36 34.74 26.41 12.05 3.19 25.59 3.46 36.86-2.52 8.52-4.1 14.95-11.91 18.06-20.78 2.42-7.39 1.86-15.47-0.13-22.88-2.49-8.19-10.52-13.39-18.74-14.36-14.29-1.86-28.98 0.95-43.1-2.61-7.68-1.95-15.47-5.25-20.7-11.43-6.23-7.26-7.19-18.17-3.43-26.8 3.61-8.22 11.75-13.29 19.84-16.39 16.39-5.6 34.99-4.8 50.65 2.75-0.23-7.55 0.88-15.47-1.96-22.66-1.75-4.58-6.21-8.16-11.25-7.92-25.61-0.03-51.23 0.05-76.84-0.03-0.01-3.07 0.01-6.13 0.06-9.2m222.12 47.16c-7.98 3.18-13.39 10.77-15.92 18.74-3.61 11.5-3.55 23.76-2.87 35.68 0.93 10.11 3.02 20.93 10.25 28.58 7.73 8.8 22.34 9.88 31.48 2.67 7.19-5.42 10.69-14.29 12.29-22.9 2.14-12.38 2.11-25.1 0.17-37.5-1.46-8.76-5.34-17.7-12.94-22.8-6.48-4.39-15.18-5.14-22.46-2.47z"/>
<path d="m402.07 302.79c433.3-0.03 866.6 0 1299.9-0.01 55.24 0.08 110.49-0.17 165.72 0.12l1.26 0.24c-42.27 29.95-84.39 60.13-126.35 90.51-62.38 45.33-124.96 90.39-187.62 135.32-31.45 22.26-62.97 44.41-94.7 66.27-14.81 9.82-29.53 19.78-44.32 29.64-66.48 43.68-134.85 85.02-207.61 117.47-39.02 17.27-79.85 31.54-122.36 36.87-24 2.76-48.78 3.75-72.24-3.02-17.65-5.03-33.95-14.23-48-25.95-13.23-10.76-24-24.05-35.56-36.48-26.83-30.43-53.65-60.91-82.1-89.85-49.34-49.4-105.05-92.42-165.28-127.71-2.74-1.62-5.51-3.66-8.84-3.61-41.8-1.35-83.6 0.74-125.3 3.42 6.58 2.52 13.54 3.86 20.2 6.16 36.02 11.68 69.73 29.41 102.07 48.89 29.24 17.87 57.37 37.51 84.47 58.46 21.44 15.99 41.36 33.9 60.95 52.07 19.11 18.27 37.6 37.25 54.29 57.78 22.52 27.5 44.92 56.2 75.09 75.81 18.47 12.54 39.64 20.84 61.44 25.42 19.99 4.54 40.64 4.54 61.02 3.59 24.71-1.82 49.14-6.79 72.82-14.05 35.26-10.82 69.2-25.55 102.22-41.91 68.4-34.66 132.96-76.36 195.59-120.45 96.85-67.44 190.96-138.69 284.89-210.11 59.73-44.98 118.78-90.88 179.26-134.86 38.73-0.1 77.46-0.03 116.2-0.02l-1.08 0.95c-19.13 12.53-37.98 25.5-56.77 38.55-126.55 87.13-249.54 179.28-374.77 268.27-30.3 21.86-61.13 42.96-91.88 64.17-63.16 43.17-127.64 84.59-195.07 120.82-36.04 19.55-73.19 37.18-111.63 51.5-42.34 15.65-86.69 27.23-131.97 29-39.21 1.7-78.95-5.65-114.43-22.56-34.83-17.23-62.45-45.78-85.97-76.15-11.49-14.24-21.65-29.51-33.77-43.24-18.31-21.25-37.93-41.39-58.72-60.23-51.98-47.57-111.32-86.45-173.33-119.63-38.04-20.12-77.35-38.02-118.11-51.92-4.16-1.32-8.54-0.06-12.78-0.01-16.9 1.39-33.88 2.24-50.69 4.54-2.15 0.28-4.31 0.39-6.46 0.53 0.28-58.13 0.04-116.26 0.12-174.38 0.11-10.07-0.23-20.16 0.19-30.22z"/>
<path d="m1951.4 379.38c32.73-23.97 65.52-47.89 98.93-70.91 0.01 23.87 0.02 47.73 0 71.6-0.78 0.65-1.59 1.26-2.37 1.85-128.76 86.75-252.19 181.02-378.04 271.87-31.19 22.98-63.02 45.07-94.61 67.49-59.6 42.01-119.98 82.98-182.41 120.68-34.23 20.57-68.91 40.42-104.59 58.35-38 18.98-76.8 36.65-117.35 49.5-44.92 14.31-91.62 24.54-138.94 24.85-39.82 0.92-79.8-6.03-116.92-20.47-35.89-14.32-68.89-35.76-96.78-62.48-13.36-12.75-24.62-27.45-36.1-41.86-10.53-13.46-20.24-27.59-31.64-40.36-38.17-45.33-83.39-84.48-132.42-117.65-63.84-43.28-135.03-74.46-207.73-99.55-2.93-0.94-5.95-1.74-8.58-3.38 0.11-14.35 0.06-28.7 0.01-43.05 31.2 8.56 61.74 19.47 91.85 31.29 40.84 16.22 80.64 35.02 119.27 55.97 73.78 40.76 140.46 94.78 194.02 159.99 11.16 14.09 22.37 28.15 33.95 41.9 23.1 25.81 50.76 47.75 81.86 63.14 19.26 9 39.48 16.12 60.35 20.36 25.59 5.32 51.88 6.87 77.96 5.28 24.95-1.41 49.58-6.14 73.79-12.18 40.64-10.4 79.81-25.91 117.57-44.07 71.58-34.41 138.75-77.14 204.34-121.74 60.74-43.01 121.06-86.64 180.59-131.33l1.22 2.02c-0.13-0.74-0.28-1.48-0.41-2.2 12.7-10.08 25.97-19.43 38.79-29.34 62.44-46.88 124.69-93.99 187.2-140.76 29.1-21.55 57.91-43.5 87.19-64.81z"/>
<path d="m1871.6 554.56c58.97-44.58 118.6-88.29 178.8-131.18-0.08 273.09-0.03 546.19-0.02 819.29-549.45 0.03-1098.9-0.01-1648.3 0.02-0.31-192.52 0.09-385.04-0.2-577.55 5.91 0.84 11.4 3.32 17.11 4.96 67.31 23.02 132.15 53.94 190.92 94.17 21.43 14.88 41.95 31.11 61.13 48.8 15.85 13.78 30.46 28.93 44.36 44.66 9.16 9.61 16.7 20.58 25.2 30.75 9.39 11.26 18.27 22.96 28.34 33.65 25.68 27.53 55.53 51.32 88.6 69.4 34.59 18.87 72.58 31.36 111.53 37.18 25.1 4.14 50.66 4.6 76.03 3.35 24.62-1.33 49.13-4.59 73.26-9.71 38.19-8.1 75.15-21.1 111.25-35.81 57.21-24.57 112.3-53.94 165.11-86.87 33.42-20.53 65.93-42.47 98.34-64.54 31.1-21.11 61.53-43.19 91.94-65.27 28.73-21.22 57.63-42.21 86.14-63.74 67.07-50.2 133.63-101.08 200.5-151.56z"/>
<path d="m1553.5 1306.6c9.94-0.29 19.86-1.09 29.81-1.21-0.07 34.54-0.03 69.08-0.03 103.63 0 3.61 0.27 7.98 3.55 10.26 3.19 2.09 7.25 1.23 10.86 1.45 0.03 2 0.05 4 0.08 6.03-8.64 0.06-17.27 0.01-25.9 0.05-0.87-5.08-1.27-10.21-2.14-15.28-3.85 6.64-9.31 12.89-16.86 15.25-7.22 2.13-15.45 1.39-21.89-2.63-7.73-4.76-13.25-12.78-15.45-21.54-2.3-8.66-2.36-17.88-0.39-26.61 2.23-9.51 8.13-18.25 16.5-23.37 8.38-5.13 19.72-5.86 28.13-0.4 4.31 2.57 7.35 6.68 10.11 10.78-0.19-14.36 0.02-28.73-0.1-43.08 0.08-2.84-2.05-5.35-4.65-6.21-3.73-1.33-7.75-1.03-11.62-1.07-0.02-2.03-0.02-4.05-0.01-6.05m-10.35 49.48c-5.36 1.83-9.45 6.52-11.03 11.91-2.64 8.69-2.73 17.94-2.1 26.94 0.73 7.28 1.62 15.43 7.25 20.76 4.69 5.32 13.15 6.33 19.23 2.91 5.49-3.2 9.43-8.76 11.29-14.77 2.19-7.4 2.34-15.24 1.84-22.88-0.82-8.45-4-17.31-11.02-22.54-4.33-3.42-10.32-3.83-15.46-2.33z"/>
<path d="m1620.5 1305.5c6.29-1.45 12.66 5.36 10.49 11.53-1.26 4.65-6.61 7.56-11.2 6.2-3.87-1.19-7.08-5.06-6.61-9.22 0.08-4.04 3.39-7.75 7.32-8.51z"/>
<path d="m1362.4 1312.7c-0.01-2.04 0-4.06 0.03-6.07 18.44 0.06 36.88 0.01 55.32 0.03-0.02 2 0 4.02 0.02 6.05-5.38 0.1-10.89-0.47-16.13 0.95-3.03 1.02-2.76 4.82-3.02 7.4-0.02 30.31-0.05 60.63 0.01 90.94 0.23 2.86-0.13 7.07 3.38 8.07 5.13 1.35 10.55 0.36 15.8 0.77-0.04 1.99-0.06 4-0.04 6.02-18.47-0.08-36.94 0.03-55.4-0.06 0.02-2.04 0.06-4.05 0.12-6.05 5.18-0.13 10.45 0.41 15.57-0.6 3.69-0.68 3.31-5.21 3.55-8.08 0.05-30.34 0.06-60.68-0.01-91.02-0.14-2.5 0.12-6.13-2.76-7.17-5.28-1.87-10.97-0.96-16.44-1.18z"/>
<path d="m1761.8 1312.7c-0.1-2.1 0.01-4.19 0.39-6.23 20.59 0.33 41.19-0.03 61.79 0.17 8.48 0.47 17.32 1.88 24.52 6.72 7.05 4.61 12.18 12.16 13.35 20.56 1.39 9.27-0.36 19.85-7.5 26.48-8.56 7.63-19.97 11.75-31.37 12.07-8.3 0.24-16.6 0.03-24.89 0.14 0.08 14.15-0.22 28.31 0.15 42.45-0.17 3.16 2.83 5.29 5.74 5.52 5.12 0.26 10.27 0.07 15.41 0.1 0.02 2.02 0.04 4.04 0.09 6.08-19.22 0.04-38.43-0.01-57.65 0.02-0.14-2.06-0.06-4.11 0.25-6.12 4.82-0.05 9.67 0.29 14.49-0.2 2.58-0.29 4.32-2.93 4.15-5.42 0.01-31.7 0.03-63.41-0.01-95.11 0.2-2.56-0.8-5.51-3.46-6.32-5.02-1.45-10.32-0.86-15.45-0.91m37.36 2.36c-1.57 2.32-0.91 5.27-1.07 7.91-0.01 14.56-0.04 29.13 0.01 43.7 7.99-0.14 16.02 0.34 24-0.5 6.75-0.78 13.99-3.45 17.6-9.59 4.15-7.43 4.26-16.34 3.49-24.59-0.65-7.01-4.57-13.98-11.12-16.98-7.6-3.34-16.09-2.96-24.2-2.89-3.03 0.21-6.75 0.24-8.71 2.94z"/>
<path d="m2014.6 1319.2c1.69-0.23 3.38-0.43 5.14-0.58 1.14 10.34 0.22 20.85 0.49 31.27 8.2 0.08 16.4-0.06 24.61 0.08-0.05 2.5-0.08 5-0.13 7.52-8.14-0.09-16.27 0-24.4-0.04-0.12 16.54-0.07 33.09-0.02 49.63-0.09 4.52 1.94 9.57 6.37 11.4 4.52 2.13 10.16 0.24 13.1-3.64 3.91-4.89 4.65-11.4 5.02-17.44 1.86 0 3.73 0.01 5.63 0.07-0.82 7.87-1.62 16.6-7.29 22.69-7.58 8.77-22.5 9.56-31.12 1.95-4.37-4.06-5.6-10.3-5.38-16.02 0-16.22 0.04-32.43-0.02-48.65-4.4 0.02-8.79 0.01-13.17 0.02-0.03-1.9-0.03-3.77-0.02-5.64 5.18-1.15 10.39-3.38 13.72-7.7 5.49-7.05 7.09-16.21 7.47-24.92z"/>
<path d="m1882.4 1348.4c9.46-1.98 19.87-0.38 27.83 5.31 8.68 5.93 14.26 15.8 15.64 26.16 1.96 13.6-0.72 29.08-11.3 38.69-7.85 7.22-18.96 10.88-29.56 9.39-8.54-0.94-16.32-5.82-21.63-12.46-5.95-7.06-8.55-16.39-8.87-25.48-0.38-8.64 1.29-17.5 5.69-25.02 4.88-8.1 12.84-14.58 22.2-16.59m5.09 5.19c-7.14 0.95-12.55 6.99-15.03 13.43-3.18 8.93-3.25 18.61-2.75 27.98 0.65 8.11 2.38 16.92 8.61 22.71 6.73 6.94 19.26 6.19 25.38-1.21 6.53-7.17 7.19-17.38 7.74-26.58 0.05-9.92-0.04-20.88-6.21-29.19-3.93-5.57-11.09-8.21-17.74-7.14z"/>
<path d="m1939.1 1357.1c6.53-8.22 18.42-10.32 28.14-7.52 3.79 0.89 7.02 3.13 10.45 4.89 2.74-2.09 4.55-6.85 8.75-5.28 0.57 8.97 1.34 17.94 1.99 26.92-1.85-0.01-3.66-0.01-5.46 0-1.6-5.01-3.71-9.96-7.14-14-6.43-7.7-18.38-9.89-27.26-5.46-5.82 2.87-9.04 11.01-4.86 16.52 4.73 5.63 12.67 6.3 19.43 7.64 7.93 1.68 16.8 2.25 23.2 7.82 4.29 3.91 7.34 9.45 7.65 15.32 0.22 7.05-4.19 13.29-9.37 17.66-6.08 5.43-14.66 7.12-22.59 6.52-6.61-0.49-12.71-3.47-18.04-7.24-1.77 1.96-3.4 4.04-5.21 5.95-1.23 1.53-3.43 0.54-5.08 0.77-0.33-10.09-1.2-20.15-1.5-30.23 1.7-0.02 3.43-0.03 5.18-0.02 2.67 6.1 4.98 12.6 9.71 17.49 4.9 5.54 12.63 7.67 19.83 7.32 4.99-0.27 10.37-1.69 13.72-5.66 3.62-4.11 4.12-11.18 0.04-15.14-2.27-2.55-5.78-3.21-8.9-4.04-7.93-1.78-15.98-3.1-23.73-5.58-5.51-1.76-10.58-5.6-12.82-11.05-3.58-7.72-1.55-17.24 3.87-23.6z"/>
<path d="m1422.7 1350.7c8.45-0.35 16.88-1.12 25.33-1.43 1.1 5.46 1.56 11 2.37 16.51 4.42-7.23 11.14-13.46 19.6-15.39 7.89-1.84 17.2-1.48 23.6 4.06 5.94 5.38 8.31 13.72 8.42 21.54 0.24 12.69-0.06 25.4 0.16 38.1-0.03 2.2 0.71 4.88 2.98 5.79 3.26 1.26 6.86 0.71 10.3 0.9 0.03 2 0.05 4 0.1 6.02-13.39 0.05-26.78 0.08-40.17-0.01 0.02-2.03 0.06-4.04 0.12-6.04 3.95-0.31 8.77 0.78 11.87-2.38 1.65-1.65 1.23-4.22 1.4-6.32-0.07-11.03 0.07-22.06-0.09-33.08-0.12-6.2-1.48-13.05-6.47-17.22-5.86-4.71-14.67-4.27-20.86-0.42-6.98 4.49-10.67 12.89-10.94 21.01-0.29 9.89-0.06 19.79-0.15 29.68-0.02 2.79 0.17 6.28 2.95 7.82 3.32 1.21 6.98 0.82 10.48 0.94-0.01 2 0.01 4.02 0.04 6.05-13.44-0.01-26.88 0.03-40.32-0.02 0.03-2.03 0.08-4.03 0.15-6.02 4.46-0.2 11.8 0.99 13.12-4.83 0.29-15.96 0.03-31.93 0.12-47.9 0.05-3.24 0.01-6.95-2.54-9.33-2.96-3.25-7.71-2.49-11.62-2.84 0.01-1.74 0.01-3.48 0.05-5.19z"/>
<path d="m1675.4 1349.4c8.58-1.57 17.83-1.52 25.96 1.98 6.69 2.75 11.79 9.37 11.99 16.71 0.19 14.3-0.02 28.61 0.08 42.91 0.05 3.43 0.7 7.6 3.99 9.48 3.22 1.17 6.5-0.41 9.43-1.7 0.74 1.35 1.56 2.69 2.17 4.15-4.94 6.59-15.54 8.24-22.13 3.17-3.14-2.69-4.87-6.56-6.46-10.27-5.07 4.18-9.6 9.38-16.02 11.5-8.16 2.49-17.25 2.49-25.21-0.68-7.2-2.98-11.79-11.08-10.11-18.78 1.28-7.67 7.63-13.17 14.13-16.69 11.26-6.01 23.97-8.57 36.53-10.17-0.46-6.65 1.72-14.37-2.93-19.98-6.8-8.51-20.56-8.37-28.8-2.1-3.24 2.19-0.22 5.63 1.13 8.01 2.12 2.89 2.06 7.18-0.35 9.9-4.08 4.62-12.81 3.18-15.14-2.55-1.77-4.02-0.96-8.76 1.44-12.33 4.57-6.86 12.27-11.18 20.3-12.56m-3.26 45.15c-7.17 4.2-9.72 13.83-6.8 21.37 1.65 4.2 6.09 6.99 10.61 6.76 9.55 0.32 18.33-6.35 21.91-14.99 2.74-6.78 1.78-14.28 1.8-21.4-9.39 1.78-19.18 3.3-27.52 8.26z"/>
<path d="m1601.2 1350.6c10.04-0.18 20.09-0.43 30.13-0.87 0.15 22.29-0.22 44.61 0.18 66.9 1.72 6.11 9.69 3.48 14.38 4.06-0.01 2 0 4.01 0.01 6.04-14.39 0.06-28.78 0.01-43.17 0.05-0.03-2.02-0.05-4.03-0.05-6.03 4.37-0.56 9.63 1.19 13.34-1.81 2.26-2.75 1.46-6.68 1.67-9.97-0.1-14.36 0-28.71-0.04-43.06 0.01-2.72-0.86-5.68-3.25-7.21-3.85-2.69-8.84-1.83-13.24-2.01-0.01-2.05 0-4.08 0.04-6.09z"/>
</g>
<g transform="matrix(.37276 0 0 .37276 -1.8675 -4.48)" fill="#fee801">
<path d="m2519.5 34.46c2.12 0.23 4.77-0.73 6.64 0.57-1.57 0.56-3.3 0.57-4.87 0.68 0.09 0.41 0.28 1.23 0.38 1.64-2 0.38-4.56-0.13-5.63 2.01-1.58 0.35-3.11 0.69-4.63 1.01l0.14 0.99c-1.65 0.3-3.65 0.26-4.5 1.99-1.49 0.42-3.42 0.18-3.91 1.97-1.77 0.33-3.44 0.87-4.74 2.09-1.85 0.46-3.69 0.85-5.5 1.2-0.18 2.15-2.39 1.7-3.87 2.01-0.6 1.48-2.32 1.51-3.52 2.03l0.08 0.85c-1.61 0.29-3.18 0.62-4.72 0.98-0.98 1.6-2.94 1.6-4.52 2l0.31 0.96c-1.67 0.32-3.5 0.41-4.62 1.81-4.31 1.99-8.89 3.64-12.83 6.2-1.13 0.4-2.2 0.79-3.24 1.2-1.55 1.04-3.33 1.6-4.82 2.65-1.43 0.61-3.04 0.88-4.1 2.05-1.5 0.36-3.16 0.48-3.91 2-2.87 0.96-5.73 2.07-8.12 3.96-1.35 0.6-3.12 0.67-3.73 2.16-1.54 0.38-3.66 0.01-4.12 1.96-1.33 0.21-2.81 0.22-3.08 1.85-1.62 0.38-3.18 0.75-4.73 1.1l0.26 1.09c-1.56 0.44-4-0.19-4.35 1.88-4.42 1-7.89 4.15-12.2 5.39-0.61 1.49-2.47 1.28-3.65 1.83l0.25 0.82c-4.3 1.17-7.69 4.37-12.08 5.32l0.1 0.72c-2.56 0.79-4.68 2.54-7.27 3.15l0.25 0.85c-1.3 0.33-2.56 0.69-3.78 1.08-0.9 1.32-2.44 1.71-3.81 2.22-2.54 1.8-5.35 3.31-8.4 3.96l0.06 0.64c-1.17 0.33-2.04 0.99-2.59 1.98-1.5 0.42-3.08 0.71-4.11 1.93-1.23 0.45-2.42 0.9-3.6 1.33l0.2 0.89c-1.57 0.36-3.11 0.75-4.6 1.17-0.56 1.3-1.87 1.68-3.02 2.12-1.14 1.03-2.54 1.58-3.92 2.08-3.19 2.43-6.98 4.02-10.52 5.88l0.08 0.77c-1.27 0.35-2.5 0.72-3.69 1.09-1.01 1.33-2.61 1.72-4.09 2.13-0.24 1.61-1.76 1.61-2.99 1.87-1.07 1.14-2.54 1.67-3.94 2.13-1.19 0.91-2.36 1.81-3.52 2.7-1.2 0.51-2.35 1.06-3.36 1.81-2.07 1.18-4.22 2.19-6.21 3.45-1.01 1.15-2.54 1.5-3.86 2.03-1.01 0.94-2.27 1.45-3.5 1.91l0.02 0.71c-1.26 0.57-3.03 0.53-3.45 2.13-0.66 0.08-1.96 0.25-2.62 0.33 0 0.38 0.01 1.14 0.01 1.53-1.63 0.45-4.13-0.01-4.17 2.27-0.61 0.05-1.82 0.16-2.43 0.21-1.78 2.78-5.74 3.05-8.29 4.98-0.35 0.41-1.04 1.21-1.39 1.61-0.54 0.04-1.62 0.11-2.16 0.15-0.42 1.67-2.07 1.77-3.38 2.16-0.37 0.4-1.1 1.2-1.47 1.6-0.54 0.07-1.61 0.21-2.14 0.28-1.37 2.18-3.98 2.96-6.09 4.14-1.11 1.09-2.59 1.57-3.99 2.02-0.41 1.47-1.95 1.55-3.11 1.95-1.92 1.86-4.19 3.27-6.69 4.16-0.83 0.73-1.71 1.36-2.63 1.9l-0.02 0.59c-2.45 0.63-4.44 2.2-6.56 3.44-1.3 1.04-2.8 1.66-4.39 1.91 0.02 0.38 0.06 1.14 0.07 1.52-0.65 0.09-1.95 0.28-2.6 0.37-2.49 2.68-6.04 4.4-9.23 6.2-2.19 1.64-5.12 2.39-6.66 4.75-0.65 0.06-1.94 0.18-2.59 0.24-0.02 0.4-0.05 1.19-0.06 1.59-1.7 0.17-3.23 0.71-4.24 2.11-0.79 0.59-1.55 1.17-2.3 1.76-1.43 0.43-2.95 0.71-3.91 1.92-0.99 0.73-1.95 1.45-2.88 2.17-1.06 0.46-2.12 0.93-3.1 1.42-1.97 2.08-4.5 3.69-7.39 3.97-0.01 0.39-0.02 1.17-0.03 1.56-0.54 0.01-1.62 0.04-2.16 0.05l0.03 0.97c-1.21 0.6-2.97 0.7-3.33 2.28-0.46 0.01-1.37 0.04-1.83 0.06 0.04 0.41 0.1 1.25 0.13 1.66-1.43 0.3-2.85 0.62-4.21 0.97-1.13 2.71-4.62 2.67-6.23 4.95-1.41 0.55-2.82 1.13-3.76 2.32-1.24 0.41-2.46 0.81-3.64 1.19 0.01 0.4 0.03 1.2 0.04 1.59-0.67 0.05-2.02 0.16-2.69 0.21-2.11 3.21-6.62 3.72-8.95 6.82-0.47 0.15-1.39 0.44-1.86 0.59-1.48 0.99-2.97 1.98-4.17 3.27-2.66 0.72-5.05 2.11-6.88 4.15-1.29 0.3-2.67 0.49-2.88 2-1.36 0.32-2.8 0.55-3.18 2.11-0.41 0.04-1.25 0.13-1.67 0.17 0.03 0.4 0.08 1.21 0.11 1.61-1.57 0.34-3.12 0.8-4.57 1.35-0.91 0.84-1.91 1.53-2.9 2.21-0.95 1.27-2.51 1.62-3.88 2.1-1.14 1.79-2.89 2.91-4.79 3.69l0.31 0.86c-1.36 0.34-3.08 0.2-3.51 1.81-2.47 0.72-3.98 3.15-6.65 3.32l0.04 0.78c-1.24 0.23-2.07 0.92-2.47 2.06-0.44 0.02-1.33 0.07-1.78 0.1 0.05 0.47 0.15 1.42 0.2 1.9-1.17 0.07-2.32 0.16-3.44 0.25-0.35 0.41-1.05 1.24-1.39 1.66-3.24 1.8-5.97 4.5-9.57 5.58-1.06 1.1-2.07 2.22-3.04 3.37-0.55 0.04-1.66 0.14-2.21 0.18-0.24 1.47-1.61 1.83-2.76 2.29-0.81 0.99-1.97 1.53-3.03 2.09-0.63 0.74-1.31 1.4-2.06 1.97-1.08 0.61-2.1 1.25-3.1 1.9-1.25 0.87-2.48 1.73-3.68 2.62-1.66 1.31-3.37 2.56-5.3 3.41-2 1.44-3.89 3-5.78 4.55-1.81 0.76-3.33 1.94-4.78 3.2-33.41 23.02-66.2 46.94-98.93 70.91-29.28 21.31-58.09 43.26-87.19 64.81-62.51 46.77-124.76 93.88-187.2 140.76-12.82 9.91-26.09 19.26-38.79 29.34 0.13 0.72 0.28 1.46 0.41 2.2l-1.22-2.02c-59.53 44.69-119.85 88.32-180.59 131.33-65.59 44.6-132.76 87.33-204.34 121.74-37.76 18.16-76.93 33.67-117.57 44.07-24.21 6.04-48.84 10.77-73.79 12.18-26.08 1.59-52.37 0.04-77.96-5.28-20.87-4.24-41.09-11.36-60.35-20.36-31.1-15.39-58.76-37.33-81.86-63.14-11.58-13.75-22.79-27.81-33.95-41.9-53.56-65.21-120.24-119.23-194.02-159.99-38.63-20.95-78.43-39.75-119.27-55.97-30.11-11.82-60.65-22.73-91.85-31.29-0.4-0.08-1.2-0.25-1.6-0.33l0.24-0.95c-3.32-0.22-6.6-0.79-9.88-1.23l0.12-1.03c-2.48-0.5-5.23-0.31-7.38-1.8-3.03-0.71-6.12-0.99-9.2-1.29-0.95-2.18-3.49-1.37-5.35-1.67-2.48-2.58-6.91-1.48-10.21-2.2l0.16-1.05c-2.11-0.3-4.23-0.57-6.36-0.66-0.02-0.3-0.06-0.91-0.08-1.21-2.44-0.46-5.95 0.93-7.42-1.69-4.94-0.26-9.83-1.11-14.76-1.44-2.79-2.89-7.7-0.41-10.85-2.82-3.48-0.48-6.98-0.73-10.46-1.19-3.72-1.81-8.03-1.34-11.97-2.34 3.48-0.73 6.99-1.34 10.55-1.58l0.06-0.96c3.43-0.21 6.85-0.6 10.28-0.79l-0.24-1.08c5.34 0.08 10.59-1.09 15.92-1.13v-1.03c4.07 0.02 8.07-0.81 12.13-0.94l-0.17-1.08c4.69 0.09 9.32-0.87 14.01-0.97l0.05-1.02c4.37-0.09 8.7-0.85 13.08-0.9l-0.04-1.02c4.09 0.16 8.1-0.86 12.19-0.78l-0.18-1.14c6.18 0.29 12.29-0.95 18.46-0.93 1.79-0.01 3.55-0.37 5.29-0.75 16.81-2.3 33.79-3.15 50.69-4.54 4.24-0.05 8.62-1.31 12.78 0.01 40.76 13.9 80.07 31.8 118.11 51.92 62.01 33.18 121.35 72.06 173.33 119.63 20.79 18.84 40.41 38.98 58.72 60.23 12.12 13.73 22.28 29 33.77 43.24 23.52 30.37 51.14 58.92 85.97 76.15 35.48 16.91 75.22 24.26 114.43 22.56 45.28-1.77 89.63-13.35 131.97-29 38.44-14.32 75.59-31.95 111.63-51.5 67.43-36.23 131.91-77.65 195.07-120.82 30.75-21.21 61.58-42.31 91.88-64.17 125.23-88.99 248.22-181.14 374.77-268.27 18.79-13.05 37.64-26.02 56.77-38.55 0.7-0.41 1.29-0.96 1.78-1.64 1.19-0.5 2.29-1.23 3.23-2.17 0.48-0.15 1.43-0.44 1.91-0.58 2.41-2.7 5.94-4.21 8.98-6.15 0.95-0.71 1.92-1.41 2.95-2.09 1.85-1.55 3.89-2.84 6.09-3.88 1.59-1.24 3.4-2.19 5.06-3.37 0.45-0.15 1.34-0.44 1.79-0.58 1.18-2.09 3.53-2.94 5.08-4.69 0.47-0.12 1.42-0.37 1.89-0.5 1.43-1.08 2.94-2.11 4.12-3.52 0.55-0.07 1.65-0.22 2.2-0.29 0.35-0.5 1.04-1.51 1.38-2.02 1.56-0.52 3.75-0.52 4.3-2.49 0.64-0.09 1.94-0.26 2.59-0.35-0.02-0.42-0.04-1.25-0.05-1.66 0.62-0.11 1.87-0.33 2.5-0.44 0.68-1.07 1.79-1.65 2.89-2.27 1-0.72 2.09-1.24 3.27-1.74 0.36-1.46 1.73-1.62 3.02-1.91 0.47-1.32 1.74-1.68 2.96-2.12 0.92-0.74 1.87-1.48 2.83-2.24 0.96-0.73 2.04-1.23 3.18-1.75 0.66-1.39 2.2-1.54 3.54-1.96 0.31-0.45 0.92-1.33 1.22-1.78 0.66-0.02 1.97-0.06 2.63-0.08-0.01-0.44-0.04-1.33-0.06-1.77 0.68-0.05 2.03-0.17 2.71-0.23 0.15-1.7 1.62-1.88 3.01-2.14 0.25-1.55 1.65-1.69 2.97-1.95 0.36-1.46 1.97-1.53 3.11-2.08 1.61-3.22 6.03-2.55 7.66-5.54 0.65-0.09 1.94-0.27 2.58-0.36-0.01-0.4-0.03-1.2-0.05-1.6 0.67-0.09 2-0.28 2.67-0.37 1.24-2.25 3.92-2.93 5.99-4.21 0.96-0.71 1.98-1.38 3.04-2.03 3.56-1.63 6.32-4.74 10.17-5.76 0.41-1.14 1.23-1.81 2.46-2.02l-0.09-0.74c1.53-0.34 3.07-0.83 4.4-1.77 0.67-0.73 1.35-1.46 2.04-2.2 0.9-0.22 1.85-0.44 2.83-0.66 2.02-2.24 5.24-3.04 7.03-5.48 0.69-0.05 2.06-0.15 2.74-0.2l-0.2-1.76c1.93-0.43 3.88-0.9 5.87-1.34 0-0.3 0.01-0.91 0.02-1.21 2.15-2.03 6.11-1.59 7.44-4.39 0.55-0.08 1.64-0.23 2.19-0.31 0.43-2.16 3.64-1.25 3.82-3.63 0.59-0.07 1.77-0.21 2.36-0.27 0.11-2.09 2.29-1.78 3.83-2.19 0.79-0.92 1.62-1.81 2.5-2.69 2.43-0.7 4.55-2.13 6.53-3.7 1.44-2.78 5.65-1.65 6.83-4.27 1.17-0.35 2.67-0.35 3.07-1.83 2.61-0.79 5.31-1.85 7.09-4.04 1.93-0.45 3.77-1.28 5.1-2.84 0.53-0.08 1.59-0.24 2.12-0.33 0.81-0.93 1.75-1.78 2.97-2.23 1.49-1.82 4.96-0.98 5.55-3.59 0.7-0.06 2.1-0.19 2.8-0.25l-0.32-1.19c0.63-0.17 1.89-0.51 2.52-0.69l-0.28-1c1.61-0.26 3.3-0.59 4.41-1.95 1.14-0.41 2.49-0.67 3.11-1.93 3.21-1.19 6.54-2.54 9.07-4.95 0.62-0.06 1.86-0.18 2.49-0.24-0.01-0.4-0.04-1.21-0.05-1.61 0.65-0.11 1.95-0.32 2.6-0.42 1.3-0.93 2.7-1.76 3.94-2.84 1.28-0.58 3.25-0.43 3.8-2.06 1.47-0.44 3.2-0.65 4.08-2.14 0.66-0.11 1.97-0.34 2.63-0.46-0.02-0.35-0.07-1.06-0.09-1.41 2.83-0.41 5.83-1.58 7.58-3.98 0.66-0.06 1.99-0.18 2.66-0.24-0.01-0.41-0.04-1.23-0.06-1.64 3.45 0.2 5.83-2.42 8.95-3.35l-0.17-0.9c1.39-0.31 2.8-0.65 4.24-0.98l-0.26-0.98c1.58-0.28 3.23-0.64 4.45-1.84 2.36-1.35 5.01-2.25 7.13-4.03 1.29-0.48 2.63-0.93 4.01-1.4 0.9-1.09 2.25-1.51 3.59-1.89l-0.14-0.87c1.37-0.32 2.76-0.66 4.19-0.99l-0.1-0.86c1.55-0.39 3.2-0.78 4.29-2.11 1.38-0.42 2.78-0.82 4.23-1.23 0.41-1.65 2.02-1.66 3.44-1.92l-0.18-1c1.09-0.28 2.2-0.55 3.35-0.83l-0.15-0.91c1.81-0.39 3.6-0.87 5.43-1.4 0.64-1.45 2.15-1.58 3.55-1.89l-0.11-0.96c1.37-0.29 2.76-0.61 4.19-0.91l-0.18-0.94c2.76-0.72 5.71-1.51 7.63-3.82 2.8-0.5 5.37-1.77 7.75-3.34l-0.17-0.72c1.65-0.35 3.34-0.72 5.04-1.09l-0.08-0.9c3.03-0.62 5.61-2.43 8.53-3.44 1.18-0.93 2.61-1.51 4.09-1.94 2.59-1.74 5.57-2.77 8.47-3.91l-0.21-0.88c1.53-0.43 4 0.23 4.47-1.84 1.75-0.43 4-0.24 5.04-2.09 1.39-0.37 2.8-0.72 4.25-1.09 1.22-1.39 3.09-1.63 4.8-2.18 1.07-1.26 2.7-1.58 4.24-2.06 1.37-1.19 3.09-1.72 4.93-1.84 2.02-2.49 5.58-2.94 8.49-3.91l-0.16-0.91c1.67-0.35 3.37-0.71 5.1-1.07l-0.18-1.06c1.69-0.31 3.4-0.64 5.15-0.95l-0.15-1c1.61-0.31 3.48-0.37 4.58-1.87 3.26-0.64 6.15-2.4 9.37-3.28 1.34-1.19 3.05-1.64 4.79-2.08 1.22-0.86 2.59-1.45 4.03-1.96 1.9-1.22 4.17-1.51 6.39-1.82l-0.07-0.92c1.52-0.35 3.05-0.74 4.63-1.14 1.31-1.6 3.47-1.62 5.37-2.03l-0.18-0.87c3.41-0.88 6.59-2.49 10.06-3.27 1.68-1.24 3.72-1.65 5.78-1.98 1.34-0.71 2.87-1.28 3.81-2.6 2.18-0.35 4.39-0.72 6.61-1.13l-0.07-0.96c3.61-0.3 6.63-2.6 10.23-3.06l-0.34-1.09c1.72-0.08 3.43-0.17 5.22-0.25-0.02-0.42-0.06-1.24-0.09-1.66 2.06-0.09 4.12-0.19 6.24-0.26-0.08-0.46-0.24-1.38-0.32-1.83z"/>
<path d="m2691.6 62.65c5.65-0.35 10.76-3.27 16.5-3.35-0.09 2.43-2.54 2.82-4.22 3.76-1.72 0.9-3.62 1.31-5.47 1.54 0.07 0.3 0.22 0.91 0.29 1.22-1.45 0.25-2.86 0.5-4.24 0.74l0.06 0.98c-1.45 0.29-2.84 0.61-4.21 0.92l0.21 0.89c-1.57 0.42-3.87 0.08-4.41 1.98-2.24 0.41-4.45 0.84-6.64 1.26l0.25 0.8c-1.64 0.53-3.18 1.15-4.56 2.1-1.25 0.19-2.46 0.36-3.63 0.53 0.02 0.37 0.06 1.11 0.09 1.49-2.07 0.12-4.27 0.07-5.53 1.94-1.73 0.42-3.44 0.82-5.11 1.23-0.74 1.81-2.7 1.57-4.23 1.83-0.95 2-3.54 1.6-5.3 2.09l0.29 1.04c-1.49 0.29-2.93 0.58-4.35 0.85l0.16 1.03c-2.24 0.53-4.48 0.94-6.73 0.96 0.81 0.31 1.66 0.61 2.53 0.92-1.55 0.48-3.94-0.1-4.25 1.98-3.64 0.34-6.62 2.66-10.16 3.35-1.05 1.32-2.76 1.42-4.23 1.76-0.92 1.77-3.19 1.64-4.79 2.2-0.68 1.93-2.99 1.4-4.54 1.82l0.19 0.96c-1.38 0.36-3.14 0.19-3.62 1.8-1.68 0.6-4.47-0.05-4.72 2.28-1.34 0.06-2.64 0.13-3.91 0.19 0.03 0.41 0.09 1.22 0.11 1.63-4.09-0.25-7.17 2.74-11.05 3.2l0.21 1.1c-1.48 0.25-2.95 0.5-4.36 0.75l0.32 1.02c-1.44 0.28-2.88 0.59-4.25 0.89l0.17 1.08c-1.65 0.4-3.89-0.03-4.48 1.95-1.75 0.53-4.62-0.24-4.8 2.23-0.73 0-2.2 0.01-2.94 0.02 0.03 0.44 0.1 1.33 0.13 1.77-1.72 0.11-3.46 0.23-5.11 0.36 0.04 0.42 0.13 1.28 0.17 1.71-0.81 0.02-2.42 0.07-3.23 0.09 0.04 0.44 0.1 1.31 0.14 1.74-2.12 0.42-5.22-0.37-6.31 1.94-1.62 0.4-3.19 0.8-4.75 1.2l0.25 1.03c-1.6 0.33-3.18 0.71-4.69 1.13-1.05 1.55-2.85 1.74-4.51 1.86 0 0.27 0.01 0.83 0.02 1.1-1.61 0.37-3.68 0.02-4.34 1.89-1.27 0.33-2.55 0.63-3.75 0.93l0.17 1.11c-1.23 0.11-2.43 0.22-3.59 0.35-0.71 2.87-4.84 1.2-5.79 3.77-0.56 0.01-1.68 0.04-2.24 0.05-0.32 0.47-0.96 1.4-1.28 1.86-1.42 0.15-2.8 0.3-4.15 0.45 0 0.37-0.01 1.12-0.02 1.49-0.76 0.05-2.29 0.14-3.06 0.19 0.01 0.42 0.03 1.24 0.04 1.65-2.1 0.2-4.15 0.55-6.14 1.04l0.22 1c-3.04 0.85-5.99 2.06-8.48 3.98-1.44 0.56-3.25 0.62-3.97 2.18-0.66 0.09-1.99 0.25-2.66 0.34 0.04 0.39 0.1 1.16 0.13 1.55-1.93 0.36-4.76-0.44-5.44 1.98-1.72 0.42-3.42 0.85-5.07 1.29-0.85 1.52-2.56 1.74-4.05 1.98-2.57 2.11-5.68 3.39-8.84 4.23-0.74 0.92-1.67 1.49-2.79 1.73l0.24 0.8c-3.4 0.52-6.12 2.93-9.55 3.31-0.68 1.92-2.85 1.67-4.43 2.03 0.01 0.35 0.04 1.06 0.05 1.41-0.71 0.11-2.12 0.34-2.83 0.45-1.25 1.39-3.01 1.85-4.76 2.06-0.48 1.69-2.34 1.5-3.62 1.91l0.2 0.97c-1.41 0.35-2.79 0.71-4.13 1.07l0.14 0.92c-1.41 0.31-3.29 0.05-3.46 1.92-1.48 0.34-2.9 0.69-4.3 1.07-0.93 1.89-3.2 1.7-4.91 2.16-0.5 1.84-2.45 1.72-3.91 2.11-0.49 1.39-1.88 1.58-3.07 1.88-0.8 1.68-2.65 1.64-4.18 1.93-0.44 1.47-1.98 1.64-3.16 2.14-1.37 0.71-2.79 1.34-4.17 1.93l0.15 0.93c-0.8 0.06-2.4 0.2-3.19 0.26 0.01 0.38 0.02 1.12 0.03 1.49-1.64 0.33-3.67 0.17-4.42 1.98-1.53 0.38-3.13 0.69-4 2.09-0.69 0.07-2.05 0.21-2.73 0.28 0.07 0.45 0.21 1.35 0.28 1.81-1.74 0.13-3.47 0.27-5.13 0.41l0.04 1.4c-1.66 0.26-3.21 0.78-4.41 1.94-1.22 0.46-2.6 0.7-3.04 2.06-1.51 0.4-3.3 0.33-4.04 1.92-1.43 0.57-2.98 0.88-3.95 2.11-1.47 0.44-3.02 0.73-3.98 1.99-1.36 0.52-2.7 1.06-3.83 1.94-2.35 1.37-4.68 2.86-7.35 3.48-0.34 1.72-2.12 1.5-3.42 1.79l0.12 0.83c-2.66 1.02-5.15 2.38-7.56 3.83-1.09 0.61-2.29 1.07-3 2.1-2.6 0.89-5.33 1.91-6.99 4.21-1.2 0.09-2.35 0.17-3.47 0.25 0.02 0.44 0.07 1.33 0.1 1.77-1.64 0.4-3.78 0.15-4.51 2-1.27 0.37-2.49 0.72-3.69 1.07l0.13 0.8c-1.31 0.47-2.68 0.85-3.51 2.01-1.11 0.41-2.18 0.8-3.2 1.23-3.37 2.39-7.02 4.53-10.83 6.15-0.78 0.8-1.65 1.45-2.61 1.95l0.04 0.7c-1.54 0.43-3.87-0.04-4.13 2.02-2.38 0.65-4.39 2.09-6.51 3.23-1.39 0.76-2.7 1.62-3.84 2.66-1.41 0.43-2.78 0.85-4.12 1.28-0.45 1.34-1.69 1.77-2.86 2.14-1.1 1.11-2.55 1.69-4.01 1.98-0.64 0.76-1.32 1.46-2.05 2.1-1.21 0.87-2.61 1.39-3.96 1.86-0.78 1.09-1.97 1.55-3.14 1.95-0.7 1.59-2.55 1.53-3.91 2.02-0.64 0.97-1.53 1.64-2.65 1.99l0.21 0.69c-1.27 0.39-2.5 0.8-3.7 1.19-1.28 0.91-2.54 1.83-3.75 2.78-1.92 0.86-3.74 1.91-5.64 2.74 0 0.3-0.02 0.9-0.02 1.19-3 0.12-4.81 2.54-7.42 3.51-1.53 2.07-4.19 2.73-6.05 4.41-1.07 0.61-2.45 0.88-2.95 2.12-1.26 0.32-2.61 0.48-2.95 1.89-2.73 0.63-4.97 2.23-6.93 4.13-2.48 0.56-4.3 2.29-6.1 3.93-1.22 0.39-2.48 0.72-3.01 2-1.44 0.44-2.91 0.87-3.88 2.05-1.1 0.58-2.16 1.16-3.14 1.84-1.02 0.69-2.02 1.36-2.98 2.05-1.09 0.61-2.42 0.95-2.98 2.15-1.28 0.29-2.58 0.5-2.89 1.93-1.22 0.45-2.54 0.76-3.06 2.07-1.45 0.44-2.91 0.89-3.88 2.08-0.81 0.4-1.58 0.81-2.32 1.21-0.96 0.82-1.98 1.51-3.04 2.11-1.28 0.81-2.49 1.7-3.63 2.65-0.82 0.42-1.61 0.85-2.37 1.29-1.18 0.91-2.5 1.6-3.87 2.06-1.19 1.33-2.65 2.36-4.09 3.35-0.49 0.12-1.48 0.36-1.97 0.48-0.35 1.49-1.77 1.74-2.96 2.12-1.29 1.83-3.38 2.78-5.13 4.05-1.57 1.14-3.79 1.53-4.63 3.43-0.45 0.04-1.35 0.11-1.79 0.14l0.15 1.09c-0.94 0.36-1.86 0.71-2.74 1.07-1.19 1-2.37 2.02-3.65 2.85-1.06 0.63-2.07 1.32-3.02 2.05-0.77 0.42-1.52 0.84-2.24 1.28-0.97 0.75-1.98 1.42-2.98 2.07-1.25 0.89-2.48 1.79-3.77 2.56-0.83 0.54-1.56 1.18-2.19 1.91-2.13 1.1-4.54 2-5.88 4.09-1.16 0.51-2.28 1.06-3 2.11-1.18 0.41-2.54 0.58-2.75 2-1.26 0.32-2.47 0.74-3.29 1.77-0.74 0.65-1.44 1.33-2.09 2.05-1.31 0.33-2.62 0.66-2.9 2.18-0.56 0.11-1.67 0.33-2.23 0.44-0.38 1.32-1.6 1.77-2.72 2.2-1.48 0.96-3.08 1.89-3.96 3.46h-1.89c0.04 0.45 0.12 1.35 0.16 1.81-1.65 0.41-3.91 0.04-4.37 2.15-0.44 0.06-1.31 0.18-1.75 0.25 0.06 0.44 0.18 1.33 0.24 1.77-0.8 0.05-2.38 0.14-3.17 0.18 0.04 0.46 0.11 1.38 0.15 1.84-0.78 0.03-2.34 0.11-3.12 0.15 0.01 0.45 0.02 1.36 0.03 1.81-0.62 0.08-1.87 0.23-2.49 0.31-0.65 0.82-1.28 1.64-1.88 2.46-0.51 0.09-1.54 0.28-2.05 0.37-1.39 1.75-3.38 2.8-5.15 4.07-1.13 1.33-2.82 1.67-4.41 1.92 0.02 0.36 0.06 1.07 0.08 1.42-4.69 2.13-8.32 6.03-12.75 8.62-1.01 0.85-2.05 1.68-2.66 2.86-0.67 0.06-2 0.19-2.67 0.26 0.02 0.39 0.07 1.18 0.09 1.57-1.38 0.31-3.05 0.3-3.4 1.97-1.18 0.44-2.37 0.86-3.03 1.98-1.01 0.68-2 1.35-2.95 2.05-0.95 0.69-1.86 1.41-2.78 2.08-60.2 42.89-119.83 86.6-178.8 131.18-66.87 50.48-133.43 101.36-200.5 151.56-28.51 21.53-57.41 42.52-86.14 63.74-30.41 22.08-60.84 44.16-91.94 65.27-32.41 22.07-64.92 44.01-98.34 64.54-52.81 32.93-107.9 62.3-165.11 86.87-36.1 14.71-73.06 27.71-111.25 35.81-24.13 5.12-48.64 8.38-73.26 9.71-25.37 1.25-50.93 0.79-76.03-3.35-38.95-5.82-76.94-18.31-111.53-37.18-33.07-18.08-62.92-41.87-88.6-69.4-10.07-10.69-18.95-22.39-28.34-33.65-8.5-10.17-16.04-21.14-25.2-30.75-13.9-15.73-28.51-30.88-44.36-44.66-19.18-17.69-39.7-33.92-61.13-48.8-58.77-40.23-123.61-71.15-190.92-94.17-5.71-1.64-11.2-4.12-17.11-4.96-1.73-1.54-4.07-1.56-6.24-1.72 0.01-0.27 0.03-0.83 0.04-1.1-2.19-0.35-4.37-0.67-6.55-1.01-0.23-0.29-0.7-0.87-0.93-1.16-4.44-1.12-8.76-2.82-13.4-2.92-0.01-0.36-0.04-1.09-0.05-1.45-2.09-0.1-4.16-0.19-6.24-0.25 0.03-0.32 0.1-0.96 0.14-1.28-1.74-0.24-3.46-0.45-5.2-0.65l0.17-1.06c-2.69-0.32-5.36-0.75-8.04-1.12l0.16-1.05c-2.73-0.33-5.46-0.66-8.19-0.87l0.17-1.08c-2.39-0.35-4.77-0.71-7.16-0.99l0.23-1.05c-3.32-0.52-6.65-0.92-10-1.08 0-0.37-0.02-1.1-0.02-1.47-2.04-0.15-4.06-0.3-6.09-0.43l0.13-1.05c-1.97-0.31-4.32-0.01-5.77-1.65-3.46-0.46-6.91-0.96-10.37-1.36l0.18-0.99c-2.3-0.26-4.59-0.54-6.86-0.94-3.25-2.67-8.41-0.43-11.53-3.1-2.25-0.51-4.56-0.73-6.86-0.85l0.11-1.04c-3-0.33-6-0.75-9-1.08l0.08-0.98c-2.34-0.17-4.66-0.39-6.97-0.75-3.57-2.57-8.82-0.54-12.49-3.08-2.93-0.47-5.88-0.82-8.84-1.02l0.14-1.02c-4.37-0.01-8.64-1.07-13-1.09l0.24-1.05c-3.11-0.51-6.25-0.86-9.41-0.8 0.03-0.29 0.1-0.88 0.13-1.18-3.37-0.23-6.72-0.66-10.1-0.86l0.14-1.03c-5.01-0.12-9.96-1.07-14.98-1.1l0.23-1.09c-3.2-0.26-6.63-0.05-9.53-1.66-3.64-0.31-7.26-0.76-10.9-0.95l-0.09-0.98c-6.31 0-12.53-1.3-18.83-1.24l0.17-1.15c-5.41 0.02-10.75-1.25-16.17-0.85 0.05-0.31 0.16-0.91 0.21-1.21-5.39-0.17-10.74-0.97-16.14-0.83l0.16-1.18c-5.08 0.13-10.09-1-15.18-0.71l-0.03-1.02c-5.96 0.05-11.86-1.05-17.82-0.83-0.02-0.31-0.07-0.93-0.09-1.24-10.4 0.42-20.73-1.37-31.13-0.9l0.08-1.22c-9.18 0.22-18.33-0.87-27.52-0.7-1.98-0.13-4.23 0.32-5.92-1.02-7.36-0.1-14.73-0.37-22.09-0.28-1.35-0.18-3.4 0.4-3.96-1.32 0.7-1.91 2.93-1.26 4.51-1.58l-0.15-0.89c3.88-0.54 7.27-2.76 11.2-3.04l-0.1-0.98c1.74-0.26 3.47-0.55 5.21-0.82l-0.16-1.05c2.07-0.29 4.14-0.65 6.2-1.01l-0.12-0.98c4.33 0.02 7.87-2.89 12.16-3.09l-0.29-1.06c1.72-0.13 3.43-0.28 5.14-0.4-0.01-0.37-0.04-1.1-0.06-1.46 2.41-0.13 4.8-0.47 7.16-0.98l-0.15-1c2.67-0.37 5.32-0.84 7.99-1.19l-0.14-1.13c1.72-0.19 3.45-0.41 5.18-0.59 0-0.29-0.01-0.86-0.01-1.14 2.37-0.3 4.73-0.67 7.1-1.01l-0.21-1.05c1.92-0.24 3.85-0.52 5.73-1.02 2.99-1.84 6.69-1.71 10.06-2.25l-0.06-0.8c1.3-0.08 2.25-0.67 2.85-1.75 3.98-0.28 7.89-1.08 11.86-1.52 0.79-1.64 2.74-1.38 4.24-1.79 2.95-1.68 6.48-1.5 9.7-2.24 2.07-2.03 5.13-1.46 7.76-1.67l-0.23-1.13c2.11-0.22 4.22-0.47 6.34-0.7l-0.15-1.01c3.21-0.32 6.41-0.77 9.6-1.23 2.42-2.24 6.25-1.37 9.29-2.04l-0.08-1c2.71-0.6 6.05 0.13 8.21-1.92 3.31-0.87 7.22-0.09 10.15-2.06 1.94-0.34 3.9-0.57 5.87-0.73-0.05-0.29-0.14-0.87-0.19-1.16 3.14-0.08 6.25-0.48 9.36-0.9l-0.28-1.02c2.62-0.08 5.27-0.18 7.8-0.95 0.92-1.17 2.48-0.91 3.77-1.11 3.35-0.28 6.67-0.84 10.02-1.12 2.33-2.88 6.38-0.82 9.54-1.12l0.04 1.03c4.92 0.16 9.77 1.22 14.71 1.3-0.01 0.29-0.02 0.89-0.03 1.19 2.72 0.33 5.46 0.57 8.2 0.67l-0.11 1.06c2.43 0.22 4.86 0.52 7.3 0.8l-0.23 1.02c3.37 0.17 6.72 0.63 10.08 1.05l-0.16 1.09c2.43 0.05 4.85 0.14 7.28 0.25-0.01 0.37-0.02 1.09-0.02 1.46 4.27 0.39 8.51 1.15 12.81 1.31l-0.15 1.05c2.97 0.49 5.95 0.91 8.95 1.13 0.01 0.28 0.01 0.85 0.01 1.13 1.46 0.17 2.93 0.32 4.4 0.47l-0.14 1.03c3.66 0.28 7.28 0.87 10.93 1.25l-0.22 1.06c2.42 0.27 4.83 0.59 7.25 0.86l-0.16 1.07c3.01 0.43 6.03 0.83 9.07 1.07-0.03 0.37-0.08 1.13-0.11 1.51 2.7 0.15 5.4 0.3 8.11 0.42-0.02 0.4-0.06 1.2-0.08 1.61 2.05 0.1 4.11 0.22 6.17 0.32l-0.26 1.21c0.84 0.01 2.53 0.03 3.37 0.03-0.01 0.39-0.02 1.15-0.03 1.53 3.97 0.11 7.83 1.12 11.78 1.39l-0.16 1.12c2.09 0.38 4.21 0.62 6.34 0.74l-0.23 1.09c2.35 0.37 4.71 0.74 7.08 1.04l-0.2 1.09c1.47 0.21 2.93 0.44 4.4 0.67l-0.1 0.98c3.16 0.38 6.3 0.9 9.46 1.32 0.86 2.73 4.31 1.45 6.47 1.92-0.03 0.4-0.09 1.19-0.12 1.59 1.73 0.07 3.48 0.17 5.23 0.24-0.05 0.32-0.16 0.97-0.21 1.29 2.36 0.31 4.73 0.62 7.1 0.89-0.02 0.36-0.07 1.08-0.09 1.44 2.02 0.16 4.06 0.34 6.1 0.5-0.02 0.35-0.04 1.06-0.06 1.42 1.81 0.24 3.62 0.53 5.42 0.89 2.63 1.64 5.65 2.44 8.58 3.38 72.7 25.09 143.89 56.27 207.73 99.55 49.03 33.17 94.25 72.32 132.42 117.65 11.4 12.77 21.11 26.9 31.64 40.36 11.48 14.41 22.74 29.11 36.1 41.86 27.89 26.72 60.89 48.16 96.78 62.48 37.12 14.44 77.1 21.39 116.92 20.47 47.32-0.31 94.02-10.54 138.94-24.85 40.55-12.85 79.35-30.52 117.35-49.5 35.68-17.93 70.36-37.78 104.59-58.35 62.43-37.7 122.81-78.67 182.41-120.68 31.59-22.42 63.42-44.51 94.61-67.49 125.85-90.85 249.28-185.12 378.04-271.87 0.78-0.59 1.59-1.2 2.37-1.85 0.37-0.34 1.12-1.03 1.5-1.37 1.29-0.34 2.9-0.43 3.15-2.1 0.43-0.05 1.29-0.14 1.72-0.19l-0.04-1.68c1.6-0.41 3.92-0.06 4.26-2.27 0.46-0.01 1.39-0.03 1.86-0.04-0.04-0.42-0.13-1.25-0.17-1.67 1.64-0.38 3.32-0.78 5.02-1.17l-0.13-0.92c1.98-1.1 4.19-2.12 5.49-4.09 0.66-0.09 1.98-0.26 2.64-0.34-0.02-0.44-0.06-1.32-0.07-1.75 0.56-0.04 1.68-0.11 2.25-0.15-0.06-0.38-0.16-1.14-0.21-1.53 1.55-0.33 3.12-0.77 4.67-1.29 1.12-1.03 2.29-2.01 3.48-2.99 1.2-0.42 2.43-0.86 3.69-1.27-0.01-0.39-0.03-1.15-0.04-1.53 0.76-0.07 2.29-0.21 3.06-0.28-0.03-0.36-0.07-1.09-0.1-1.45 1.92-0.31 3.48-1.48 4.97-2.69 2.29-1.43 4.6-2.86 6.82-4.44 0.98-0.6 2.25-0.94 2.84-2.09 2.06-1.18 4.53-2.17 5.87-4.25 1.35-0.1 2.89-0.11 3-1.9 1.18-0.36 2.39-0.71 3.64-1.04 0.84-0.99 1.68-2 2.49-3.04 0.67-0.06 2.01-0.17 2.68-0.22-0.02-0.44-0.05-1.32-0.06-1.76 0.66-0.03 1.97-0.07 2.63-0.09 0.34-0.43 1.03-1.3 1.37-1.74 2.47-0.83 4.43-2.7 6.97-3.41l-0.15-1.01c0.55-0.02 1.66-0.06 2.21-0.08 0-0.42 0.01-1.25 0.02-1.67 0.74-0.07 2.24-0.19 2.98-0.26-0.02-0.41-0.06-1.23-0.09-1.63 1.48-0.49 3.95 0.06 4.18-2.06 1.29-0.27 2.62-0.68 3.23-2.03 1.17-0.39 2.41-0.76 3.66-1.12l-0.11-0.8c1.72-1.45 4.45-1.82 5.48-3.99 1.44-0.38 3.51-0.07 3.89-2 3.51-1.5 6.71-3.73 10.16-5.43 1-1.49 2.65-1.84 4.38-1.91 0-0.4 0-1.18 0.01-1.57 0.54-0.03 1.62-0.1 2.16-0.13l-0.09-0.92c1.14-0.54 2.27-1.18 3.35-1.92 2.16-1.26 4.28-2.67 6.69-3.48l-0.11-1.01c0.56 0.01 1.69 0.02 2.26 0.02-0.04-0.45-0.13-1.35-0.17-1.8 0.8-0.03 2.39-0.09 3.19-0.12-0.02-0.43-0.06-1.3-0.08-1.74 1.6-0.39 4.21 0.3 4.32-2.07l2.76-0.24c-0.01-0.41-0.05-1.23-0.06-1.63 1.52-0.4 3.81 0.07 4.26-1.96 4.69-2.32 9.26-4.89 13.87-7.38l-0.28-0.77c1.39-0.24 3.2-0.14 3.35-2.04 1.52-0.42 3.92 0 3.88-2.26 0.49 0.05 1.48 0.13 1.98 0.18-0.02-0.44-0.06-1.32-0.08-1.75 1.64-0.39 3.31-0.81 5.01-1.21l-0.12-0.87c1.79-1.34 4.32-1.91 5.48-3.98 1.37-0.46 3.49-0.12 3.83-2.01 3.45-1.37 6.49-3.65 9.89-5.21l-0.18-1.02c0.55-0.02 1.66-0.05 2.21-0.07-0.03-0.41-0.1-1.23-0.13-1.64 1.6-0.36 4.05 0.18 4.32-2.09 1.46-0.35 3.52-0.06 4.01-1.96 1.41-0.38 2.81-0.94 3.98-1.9 1.11-0.53 2.36-0.96 3.14-2.05 1.01-0.43 2.03-0.84 3.11-1.26 1.97-2.05 5.35-2.32 6.79-4.9 0.68-0.06 2.03-0.16 2.7-0.21-0.02-0.45-0.07-1.34-0.09-1.79 0.79-0.04 2.36-0.13 3.14-0.18-0.03-0.43-0.08-1.29-0.11-1.72 1.82-0.46 4.93 0.5 5.15-2.15 1.29-0.2 2.86-0.13 3.25-1.8 1.71-0.4 3.57-0.7 4.88-2.05 2.03-1.26 4.16-2.41 6.45-3.21 0.6-1.76 2.73-1.37 4.2-1.89 0-0.23-0.02-0.69-0.03-0.92 1.21-0.52 2.81-0.63 3.53-1.98 1.17-0.39 2.32-0.75 3.57-1.1l-0.05-0.91c1.2-0.44 3.11-0.26 3.35-2.03 1.53-0.39 3.1-0.77 4.7-1.11l-0.19-1.08c1.66-0.43 3.33-0.83 5.05-1.17-0.01-0.36-0.04-1.09-0.06-1.46 1.17-0.14 2.37-0.29 3.62-0.45 0.38-1.25 1.25-1.9 2.63-1.93l-0.25-0.88c1.43-0.31 2.88-0.62 4.37-0.93l-0.35-0.97c1.66-0.15 3.17-0.84 4.36-2.06 0.71-0.11 2.13-0.35 2.84-0.46-0.01-0.38-0.04-1.12-0.05-1.49 1.57-0.38 4.12 0.28 4.3-2.01 1.4-0.44 3.66 0.07 4.16-1.87 1.45-0.4 3.41-0.25 4.02-2.04 1.44-0.43 3.65-0.06 3.88-2.1 1.19-0.16 2.42-0.32 3.69-0.46-0.01-0.38-0.03-1.12-0.04-1.49 1.49-0.51 4.06 0.13 4.28-2.05 1.84-0.17 3.82-0.33 5.1-1.92 1.18-0.38 2.6-0.58 3.09-2 1.81-0.44 3.68-0.86 5.57-1.22l-0.21-0.96c1.51-0.38 3.01-0.79 4.58-1.2 0.8-1.76 2.81-1.65 4.45-2.03l-0.1-0.7c2.35-1.59 4.97-2.59 7.76-3.18 0.76-1.59 2.69-1.44 4.13-2.02 2.73-1.92 6.31-2.47 8.8-4.71 1.3-0.66 3.62-0.25 3.94-2.17 1.19-0.11 2.42-0.21 3.7-0.31-0.03-0.41-0.1-1.23-0.14-1.65 1.35-0.1 2.73-0.21 4.14-0.31-0.02-0.41-0.06-1.22-0.09-1.63 1.68-0.14 3.33-0.3 5.07-0.45-0.04-0.42-0.12-1.25-0.16-1.67 1.36-0.07 2.76-0.13 4.19-0.19-0.02-0.41-0.06-1.22-0.08-1.62 3.97-0.02 7.25-2.16 10.86-3.35l-0.07-0.82c2.94-0.98 6.27-1.67 8.6-3.89 1.37-0.5 3.34-0.25 4.09-1.88 1.9-0.34 3.79-0.97 5.43-2.09 1.29-0.42 3.16-0.35 3.23-2.22 1.61-0.06 3.2-0.11 4.89-0.16-0.03-0.41-0.1-1.23-0.14-1.63 1.73-0.3 3.49-0.64 5.27-0.98l-0.28-1.07c3.28 0.01 5.88-2.27 9.09-2.66l0.08-1.2c1.55-0.43 3.79-0.06 4.42-2 1.51-0.2 3.01-0.39 4.61-0.56-0.03-0.37-0.1-1.12-0.13-1.5 4.01 0.05 7.42-1.97 11.06-3.24l-0.07-0.82c1.48-0.49 4.05 0.17 4.37-2.04 1.52-0.18 3.04-0.35 4.66-0.52-0.03-0.37-0.08-1.1-0.11-1.47 1.91-0.28 4.57 0.28 5.52-1.97 1.57-0.33 3.2-0.66 4.84-0.96l-0.32-1.06c2.22-0.22 4.66-0.3 6.37-2.01 1.3-0.64 3.62-0.13 4.1-1.97 1.68-0.48 4.43 0.38 4.97-1.92 1.74-0.35 3.51-0.72 5.3-1.12 0.67-1.84 2.91-1.09 4.39-1.63 0-0.31 0.01-0.93 0.02-1.25 2.28-0.39 4.58-0.84 6.91-1.23l-0.21-1.02c1.58-0.3 3.17-0.64 4.81-0.99 1.21-1.21 2.8-1.75 4.52-1.96l-0.14-0.87c2.48-0.49 4.99-0.96 7.54-1.31 0.36-2.27 2.88-1.45 4.55-1.76l-0.24-1.13c2.38-0.87 6.04 0.06 7.43-2.57 1.38-0.16 2.85-0.3 4.33-0.44 0.14-2.4 2.79-1.55 4.46-1.89l-0.25-1.17c1.98-0.35 3.99-0.69 6.04-0.99l-0.1-1.06c1.72-0.3 3.45-0.59 5.24-0.85l-0.2-1.08c1.73-0.27 3.49-0.56 5.29-0.8 0-0.29 0.02-0.86 0.02-1.14 1.65-0.26 3.37-0.54 5.09-0.8l-0.17-1.08c1.67-0.17 3.31-0.34 5.06-0.51 0-0.35 0.01-1.03 0.01-1.37 2.26-0.31 4.53-0.65 6.84-1 0.01-0.29 0.04-0.86 0.06-1.15 1.98-0.33 4-0.69 6.04-1.02l-0.15-0.95c1.78-0.29 3.57-0.61 5.4-0.92l-0.36-1.06c2.5-0.33 5.01-0.72 7.54-1.19 1.16-2.45 4.19-1.62 6.4-2.01l-0.03-1c1.56-0.35 3.14-0.71 4.75-1.09 1.86-1.4 4.25-1.47 6.51-1.77l-0.23-1.01c2.34-0.37 4.69-0.75 7.08-1.09l-0.18-1.05c1.7-0.23 3.4-0.49 5.17-0.72 0-0.3 0-0.88 0.01-1.17 2.02-0.28 4.08-0.6 6.16-0.91l-0.22-1.05c4.64 0.21 8.62-2.61 13.2-2.79 0-0.27 0.02-0.8 0.03-1.07z"/>
<path d="m2225.1 75.53c2-1.78 5.02-6 7.73-2.58-1.96 1.21-3.98 2.21-6.08 3-0.14 1.81-1.95 1.77-3.28 2.02 0.01 0.42 0.04 1.25 0.06 1.66-0.8 0.01-2.39 0.01-3.19 0.01 0.05 0.43 0.16 1.28 0.22 1.71-1.36 0.37-2.92 0.42-3.51 1.88-1.1 0.61-2.13 1.22-3.07 1.97-1.1 0.59-2.24 1.12-2.9 2.2-0.88 0.4-1.74 0.8-2.57 1.2-3.04 2.35-6.5 4.09-9.35 6.67-1.08 0.62-2.11 1.26-3.08 1.95-2.1 1.18-4.12 2.48-5.9 4.08-1.91 0.98-3.7 2.1-5.4 3.35-1.22 0.91-2.44 1.8-3.63 2.67-0.98 0.64-1.9 1.28-2.8 1.94-1.84 1.37-3.72 2.69-5.9 3.39l0.1 0.68c-3.04 1.53-5.6 3.84-8.59 5.43-0.93 1-2.21 1.47-3.4 1.93l-0.02 0.57c-1.12 0.41-1.94 1.13-2.47 2.15l-2 0.4c-1.34 1.19-2.65 2.4-3.92 3.63-1.26 0.39-2.5 0.78-3.7 1.17 0.02 0.44 0.07 1.34 0.1 1.79-0.66 0.03-1.98 0.09-2.64 0.13-0.8 1.01-1.62 1.97-2.47 2.9-1.22 0.46-2.37 1.01-3.33 1.84-0.99 0.7-1.96 1.37-2.92 2.01-3.08 1.93-6.03 4.04-9.01 6.1-0.84 0.43-1.65 0.87-2.43 1.31-0.97 0.69-1.92 1.39-2.82 2.1-0.95 0.84-1.9 1.67-2.8 2.5-2.26 0.94-4.18 2.43-5.97 4.04-1.11 0.54-2.18 1.1-3.01 1.98-0.94 0.69-1.85 1.38-2.73 2.08-0.9 0.38-1.77 0.76-2.6 1.14-0.95 1.5-2.69 1.83-4.24 2.19 0.01 0.42 0.04 1.27 0.06 1.69-0.53 0.01-1.59 0.02-2.12 0.03 0.01 0.48 0.01 1.42 0.01 1.9-0.67 0.03-2.02 0.11-2.69 0.15-0.17 1.84-1.94 1.84-3.32 2.17 0.01 0.39 0.04 1.15 0.06 1.53-0.77 0.08-2.3 0.25-3.07 0.33 0.02 0.43 0.05 1.29 0.06 1.73-0.63 0.09-1.88 0.29-2.5 0.39-1.44 2.06-3.65 3.28-5.63 4.7-0.58 0.25-1.74 0.74-2.33 0.99-0.87 1.12-1.9 2.09-2.98 2.98-1.63 0.58-3.05 1.51-4.23 2.73l-2 0.6c-0.33 1.42-1.71 1.69-2.85 2.11-0.64 0.78-1.31 1.49-2.03 2.15-1.63 1.14-4.18 1.29-4.83 3.44l-1.68 0.08 0.06 0.91c-1.99 1.05-3.76 2.42-5.43 3.89-1.05 0.68-2.07 1.36-3.07 2.04-1.09 0.64-2.13 1.28-3.1 2.03-0.69 0.63-1.36 1.27-1.99 1.91-1.23 0.43-2.55 0.76-2.93 2.18-0.48 0.12-1.46 0.35-1.94 0.46-2.81 2.68-6.31 4.43-9.28 6.87-1.12 0.96-2.48 1.54-3.8 2.07-1.81 2.77-5.32 3.58-7.11 6.36-1.25 0.41-2.56 0.75-2.93 2.18-0.48 0.13-1.44 0.4-1.93 0.54-0.96 1.1-2.24 1.84-3.62 2.18 0 0.31-0.01 0.93-0.01 1.24-2.59 0.5-4.77 1.96-6.41 3.96-1.19 0.45-2.36 0.94-2.99 2.08-0.88 0.44-1.73 0.87-2.56 1.3-0.32 0.37-0.95 1.1-1.26 1.47-1.52 0.77-2.95 1.66-4.3 2.64-1.77 1.7-3.77 3.16-6.09 3.96-0.16 1.63-1.56 1.84-2.86 2.03-2.15 2.6-5.01 4.49-7.97 6.01-0.82 0.97-1.95 1.51-3.01 2.06-1.41 1.11-2.96 2.07-3.97 3.57-0.52 0.04-1.55 0.12-2.07 0.16-0.31 1.73-1.97 1.93-3.28 2.37-0.02 0.39-0.06 1.16-0.08 1.55-0.42 0.02-1.24 0.07-1.66 0.09-0.27 1.55-1.65 1.86-2.92 2.17-1.24 1.85-3.33 2.8-5.09 4.03-0.96 0.75-1.98 1.38-2.97 2-0.86 1.11-2.2 1.54-3.42 1.99-0.82 0.86-1.62 1.72-2.39 2.6-2.05 0.89-4.24 1.91-5.05 4.16-0.67 0.04-2 0.14-2.67 0.18 0.02 0.42 0.06 1.24 0.09 1.65-2.81 0.18-4.21 3.03-6.93 3.41-0.01 0.4-0.02 1.19-0.03 1.59-0.73 0.06-2.2 0.17-2.93 0.23-0.02 0.43-0.06 1.28-0.09 1.71l-2.12 0.08 0.23 1.34c-0.46 0.03-1.37 0.07-1.83 0.1-0.36 1.25-1.19 1.97-2.5 2.14 0.02 0.38 0.06 1.14 0.08 1.51-0.75 0.04-2.24 0.11-2.99 0.14-0.02 0.4-0.07 1.22-0.1 1.62-2.11 0.27-3.46 1.9-5.17 2.91-2.85 1.9-5.79 3.69-8.25 6.07-0.44 0.14-1.31 0.42-1.75 0.57-0.53 0.52-1.59 1.57-2.13 2.09-60.48 43.98-119.53 89.88-179.26 134.86-93.93 71.42-188.04 142.67-284.89 210.11-62.63 44.09-127.19 85.79-195.59 120.45-33.02 16.36-66.96 31.09-102.22 41.91-23.68 7.26-48.11 12.23-72.82 14.05-20.38 0.95-41.03 0.95-61.02-3.59-21.8-4.58-42.97-12.88-61.44-25.42-30.17-19.61-52.57-48.31-75.09-75.81-16.69-20.53-35.18-39.51-54.29-57.78-19.59-18.17-39.51-36.08-60.95-52.07-27.1-20.95-55.23-40.59-84.47-58.46-32.34-19.48-66.05-37.21-102.07-48.89-6.66-2.3-13.62-3.64-20.2-6.16 41.7-2.68 83.5-4.77 125.3-3.42 3.33-0.05 6.1 1.99 8.84 3.61 60.23 35.29 115.94 78.31 165.28 127.71 28.45 28.94 55.27 59.42 82.1 89.85 11.56 12.43 22.33 25.72 35.56 36.48 14.05 11.72 30.35 20.92 48 25.95 23.46 6.77 48.24 5.78 72.24 3.02 42.51-5.33 83.34-19.6 122.36-36.87 72.76-32.45 141.13-73.79 207.61-117.47 14.79-9.86 29.51-19.82 44.32-29.64 31.73-21.86 63.25-44.01 94.7-66.27 62.66-44.93 125.24-89.99 187.62-135.32 41.96-30.38 84.08-60.56 126.35-90.51l-1.89-0.36c1.66-0.57 4.45 0.23 4.88-2.2 0.46-0.04 1.36-0.13 1.81-0.17-0.05-0.41-0.16-1.22-0.22-1.62 2.24-0.12 4.23-1.06 5.55-2.93 0.61-0.11 1.82-0.32 2.43-0.43l-0.12-1.68c0.67-0.08 2-0.26 2.67-0.35 0.2-1.58 1.64-1.84 2.98-2.2 0.54-0.87 1.11-1.74 1.69-2.62 1.09-0.4 2.2-0.82 3.34-1.24 0.41-1.38 1.71-1.7 2.94-2.11 1.31-1.79 3.62-2.39 5.17-3.97 1-0.65 2.03-1.29 3.08-1.94 0.89-0.89 1.93-1.63 3.15-2.07l0.06-0.63c1.27-0.17 2.07-0.88 2.4-2.12 0.66-0.07 1.96-0.21 2.61-0.28 0.01-0.37 0.03-1.13 0.04-1.5 1.22-0.54 3.08-0.44 3.46-2.13 0.44-0.06 1.31-0.19 1.74-0.26-0.06-0.42-0.2-1.26-0.27-1.69 1.7-0.17 3.99-0.13 4.38-2.34 0.45 0.04 1.36 0.1 1.81 0.13-0.01-0.43-0.03-1.31-0.05-1.74 1.5-0.43 3.01-0.88 4.56-1.33 0.14-1.52 1.47-1.8 2.75-2.16 0.67-0.7 1.36-1.39 2.1-2.06 1.54-0.74 3.03-1.7 4.09-3.1 0.56-0.17 1.67-0.5 2.23-0.67 0.88-0.72 1.78-1.44 2.74-2.14 1.33-1.13 2.68-2.25 4.06-3.36 0.47-0.13 1.42-0.38 1.89-0.5 0.44-1.37 1.72-1.71 2.96-2.11 0.64-0.72 1.34-1.4 2.09-2.04 1.01-0.86 2.25-1.36 3.53-1.8l-0.11-0.75c1.7-0.63 3.43-1.36 4.65-2.8 0.46-0.13 1.4-0.38 1.86-0.5 0.48-0.89 1.16-1.61 2.03-2.16 1-0.66 2.03-1.31 3.1-1.93 1.3-0.84 2.51-1.82 3.72-2.83l1.76-0.28c-0.01-0.37-0.04-1.11-0.06-1.48 1.55-0.34 3.13-0.82 4.3-2.02 0.68-0.5 1.38-0.99 2.12-1.49 0.9-0.99 2.14-1.51 3.4-1.98l-0.07-0.91c0.57-0.05 1.73-0.15 2.3-0.2-0.03-0.43-0.09-1.29-0.12-1.73 0.58 0.06 1.74 0.16 2.32 0.22-0.04-0.48-0.12-1.45-0.16-1.93 0.77-0.08 2.31-0.24 3.08-0.33-0.02-0.42-0.05-1.26-0.07-1.68 0.79-0.06 2.37-0.19 3.16-0.25-0.04-0.4-0.13-1.21-0.18-1.62 1.87-0.28 3.85-0.65 5.12-2.23 0.73-0.4 1.49-0.8 2.27-1.2 0.56-1.29 1.86-1.59 3.08-1.99 1.23-0.99 2.47-1.97 3.75-2.93 0.45-0.05 1.33-0.13 1.77-0.17-0.04-0.44-0.12-1.3-0.16-1.74 0.61-0.08 1.83-0.24 2.44-0.32 1.33-1.52 3.12-2.51 4.88-3.5 0.99-0.65 2.02-1.29 3.05-1.95 1.89-1.67 4.03-3.04 6.55-3.54 0.01-0.37 0.02-1.12 0.02-1.49 0.42-0.05 1.26-0.15 1.68-0.2 1.14-1.09 2.37-2.13 3.67-3.08 1.08-0.32 2.2-0.68 3.33-1.06 0.49-1.29 1.74-1.67 2.95-2.11 1.44-1.65 3.33-2.83 5.24-3.9 1.22-0.86 2.44-1.72 3.71-2.57 1.03-0.67 2.27-1.17 2.98-2.29 0.47-0.08 1.42-0.25 1.89-0.34 1.31-1.22 2.84-2.18 4.21-3.37 1.15-0.46 2.5-0.82 2.81-2.27 0.46 0 1.39-0.02 1.85-0.03-0.02-0.44-0.07-1.32-0.09-1.76 1.88-0.41 4.94 0.32 5.15-2.44 0.36 0.02 1.09 0.06 1.45 0.08 0.3-2.15 2.92-1.87 3.89-3.55 1.34-0.5 3.03-0.66 3.82-2.1 2.88-1.26 5.45-3.05 8.1-4.75 1.21-0.34 2.54-0.68 2.76-2.2 0.67-0.07 2.01-0.23 2.67-0.31v-1.75c0.66-0.06 1.99-0.18 2.66-0.24 0.2-1.73 1.88-1.78 3.27-2.15l0.01-0.68c2.2-1.19 4.32-2.52 6.37-3.98 1.74-1.2 3.52-2.38 5.46-3.31 1.22-0.85 2.43-1.75 3.63-2.7 3.58-1.48 6.62-3.94 9.89-5.99 3.59-1.59 6.83-3.84 10.13-5.97 0.87-0.68 1.8-1.35 2.73-2.03 1.13-0.43 2.3-0.85 3.5-1.28 1.43-1.65 3.31-2.83 5.44-3.4 0-0.32-0.02-0.95-0.02-1.26 5.31-1.01 9.25-5.12 14.07-7.3l-0.02-0.72c1.3-0.36 2.66-0.77 3.46-2.01 1.41-0.5 2.88-0.97 4.38-1.41v-0.54c0.87-0.63 1.73-1.29 2.59-1.99 1.06-0.49 2.15-0.96 3.3-1.42 1.65-1.08 3.28-2.22 4.86-3.46 0.5-0.08 1.51-0.23 2.02-0.3 0.87-1.28 2.17-2.15 3.45-3.03l2.24-0.56c1.28-1.08 2.71-1.95 4.25-2.69 1.34-0.75 2.57-1.69 3.71-2.76 1.39-0.4 2.81-0.78 4.27-1.17 1.23-2.19 3.92-2.77 5.93-4.08 1.11-1.03 2.57-1.47 4.01-1.98 0.55-1.29 1.88-1.58 3.1-2.06 2.27-1.45 5.09-2.3 6.73-4.58 1.31-0.64 3.3-0.5 4.01-2.1 1.36-0.48 3.1-0.52 4.05-1.85 0.48-0.29 1.44-0.88 1.92-1.17 0.56 0 1.67-0.01 2.23-0.01z"/>
</g>
</svg>
